<svg width="23" height="23" viewBox="0 0 23 23" fill="none" xmlns="http://www.w3.org/2000/svg">
<g clip-path="url(#clip0_97_13439)">
<path d="M16.1626 1.80981C15.2925 1.81083 14.4319 1.99009 13.6337 2.33654C12.8356 2.68298 12.1169 3.18928 11.522 3.82419C10.6501 2.89369 9.51869 2.24678 8.27454 1.96743C7.0304 1.68808 5.73101 1.78919 4.54505 2.25765C3.3591 2.7261 2.34135 3.54025 1.62395 4.59442C0.906539 5.64858 0.5226 6.89407 0.521973 8.16919C0.521973 14.5011 10.7348 20.7161 11.1782 20.9601C11.2852 21.0244 11.4075 21.0583 11.5323 21.0583C11.657 21.0583 11.7794 21.0244 11.8863 20.9601C12.3092 20.7161 22.522 14.5011 22.522 8.16919C22.5202 6.48314 21.8496 4.86666 20.6573 3.67444C19.4651 2.48222 17.8486 1.81163 16.1626 1.80981ZM11.522 19.5611C9.74479 18.4267 1.89697 13.1261 1.89697 8.16919C1.89785 7.11042 2.23586 6.07944 2.862 5.22566C3.48814 4.37188 4.36988 3.73966 5.37945 3.42063C6.38901 3.1016 7.47393 3.11233 8.47698 3.45127C9.48003 3.79021 10.3491 4.43975 10.9582 5.30575C11.0217 5.39583 11.1059 5.46934 11.2037 5.52008C11.3015 5.57082 11.4101 5.5973 11.5203 5.5973C11.6304 5.5973 11.739 5.57082 11.8368 5.52008C11.9346 5.46934 12.0188 5.39583 12.0823 5.30575C12.6909 4.43826 13.5602 3.78732 14.5639 3.44743C15.5676 3.10753 16.6535 3.09637 17.664 3.41557C18.6745 3.73477 19.5569 4.36772 20.1832 5.22252C20.8095 6.07732 21.1471 7.10949 21.147 8.16919C21.147 13.1226 13.2992 18.4233 11.522 19.5611Z" fill="white"/>
</g>
<defs>
<clipPath id="clip0_97_13439">
<rect width="22" height="22" fill="white" transform="translate(0.521973 0.434814)"/>
</clipPath>
</defs>
</svg>
