<svg width="26" height="26" viewBox="0 0 26 26" fill="none" xmlns="http://www.w3.org/2000/svg">
<g clip-path="url(#clip0_97_355)">
<path d="M18.7295 1.69287C17.7408 1.69402 16.7627 1.89772 15.8558 2.29142C14.9488 2.68511 14.1321 3.26044 13.4561 3.98193C12.4653 2.92455 11.1796 2.18942 9.76579 1.87198C8.35199 1.55454 6.87541 1.66944 5.52773 2.20177C4.18006 2.7341 3.02353 3.65928 2.2083 4.85719C1.39306 6.05511 0.956768 7.47043 0.956055 8.91943C0.956055 16.1147 12.5615 23.1772 13.0654 23.4546C13.1869 23.5276 13.326 23.5662 13.4678 23.5662C13.6095 23.5662 13.7486 23.5276 13.8701 23.4546C14.3506 23.1772 25.9561 16.1147 25.9561 8.91943C25.954 7.00346 25.192 5.16656 23.8372 3.81177C22.4824 2.45697 20.6455 1.69494 18.7295 1.69287ZM13.4561 21.8647C11.4365 20.5757 2.51855 14.5522 2.51855 8.91943C2.51956 7.71629 2.90365 6.54471 3.61518 5.57451C4.3267 4.60431 5.32868 3.88588 6.47591 3.52334C7.62314 3.16081 8.85601 3.173 9.99584 3.55816C11.1357 3.94332 12.1232 4.68144 12.8154 5.66553C12.8875 5.76789 12.9832 5.85142 13.0944 5.90908C13.2055 5.96674 13.3289 5.99683 13.4541 5.99683C13.5793 5.99683 13.7027 5.96674 13.8138 5.90908C13.925 5.85142 14.0207 5.76789 14.0928 5.66553C14.7844 4.67974 15.7722 3.94004 16.9128 3.55379C18.0533 3.16755 19.2873 3.15487 20.4356 3.5176C21.5839 3.88032 22.5867 4.59958 23.2984 5.57094C24.0101 6.54231 24.3937 7.71523 24.3936 8.91943C24.3936 14.5483 15.4756 20.5718 13.4561 21.8647Z" fill="white"/>
</g>
<defs>
<clipPath id="clip0_97_355">
<rect width="25" height="25" fill="white" transform="translate(0.956055 0.130371)"/>
</clipPath>
</defs>
</svg>
